<mxfile host="app.diagrams.net" modified="2024-06-21T09:35:14.927Z" agent="Mozilla/5.0 (Macintosh; Intel Mac OS X 10_15_7) AppleWebKit/537.36 (KHTML, like Gecko) Chrome/125.0.0.0 Safari/537.36" version="24.6.0" etag="9-Qti8Y3Sn9gp1PPQhl2" type="github">
  <diagram name="第 1 页" id="d2fD5mbH6JqXW5oHRr7H">
    <mxGraphModel>
      <root>
        <mxCell id="0" />
        <mxCell id="1" parent="0" />
      </root>
    </mxGraphModel>
  </diagram>
</mxfile>
